<svg width="19.923828" height="17.760742" viewBox="0 0 19.9238 17.7607" fill="none" xmlns="http://www.w3.org/2000/svg" xmlns:xlink="http://www.w3.org/1999/xlink">
	<desc>
			Created with Pixso.
	</desc>
	<defs>
		<clipPath id="clip10_4165">
			<rect id="search 1" width="19.924021" height="17.760498" fill="white" fill-opacity="0"/>
		</clipPath>
	</defs>
	<rect id="search 1" width="19.924021" height="17.760498" fill="#FFFFFF" fill-opacity="0"/>
	<g clip-path="url(#clip10_4165)">
		<path id="circle2017" d="M9.08 1.42C4.96 1.42 1.61 4.41 1.61 8.08C1.61 11.75 4.96 14.75 9.08 14.75C10.83 14.75 12.45 14.2 13.73 13.29L16.84 16.06C17 16.19 17.21 16.27 17.43 16.26C17.64 16.26 17.85 16.18 18 16.05C18.16 15.91 18.25 15.73 18.25 15.53C18.25 15.34 18.17 15.15 18.02 15.01L14.91 12.24C15.93 11.1 16.55 9.65 16.55 8.08C16.55 4.41 13.19 1.42 9.08 1.42ZM9.08 2.9C12.3 2.9 14.89 5.21 14.89 8.08C14.89 10.95 12.3 13.27 9.08 13.27C5.86 13.27 3.27 10.95 3.27 8.08C3.27 5.21 5.86 2.9 9.08 2.9Z" fill="#443297" fill-opacity="1.000000" fill-rule="nonzero"/>
	</g>
</svg>
