<svg width="71.303223" height="80.000000" viewBox="0 0 71.3032 80" fill="none" xmlns="http://www.w3.org/2000/svg" xmlns:xlink="http://www.w3.org/1999/xlink">
	<desc>
			Created with Pixso.
	</desc>
	<defs>
		<clipPath id="clip17_1110">
			<rect id="next 1" width="19.608376" height="22.000002" transform="translate(44.564453 52.000000) rotate(-179.999985)" fill="white" fill-opacity="0"/>
		</clipPath>
	</defs>
	<rect id="next 1" width="19.608376" height="22.000002" transform="translate(44.564453 52.000000) rotate(-179.999985)" fill="#FFFFFF" fill-opacity="0"/>
	<g clip-path="url(#clip17_1110)">
		<path id="Vector" d="M29.68 41.6L38.75 51.75C39.05 52.08 39.53 52.08 39.83 51.74C40.12 51.41 40.12 50.87 39.83 50.54L31.3 41L39.83 31.45C40.12 31.12 40.12 30.58 39.83 30.25C39.68 30.08 39.48 30 39.29 30C39.1 30 38.9 30.08 38.75 30.24L29.68 40.39C29.54 40.55 29.46 40.77 29.46 41C29.46 41.22 29.54 41.44 29.68 41.6Z" fill="#112137" fill-opacity="1.000000" fill-rule="nonzero"/>
	</g>
</svg>
