<svg width="21.230469" height="17.760742" viewBox="0 0 21.2305 17.7607" fill="none" xmlns="http://www.w3.org/2000/svg" xmlns:xlink="http://www.w3.org/1999/xlink">
	<desc>
			Created with Pixso.
	</desc>
	<defs>
		<clipPath id="clip10_4137">
			<rect id="shopping-cart 1" width="21.230600" height="17.760498" fill="white" fill-opacity="0"/>
		</clipPath>
	</defs>
	<rect id="shopping-cart 1" width="21.230600" height="17.760498" fill="#FFFFFF" fill-opacity="0"/>
	<g clip-path="url(#clip10_4137)">
		<path id="Vector" d="M15.92 15.54C15.92 14.72 16.71 14.06 17.69 14.06C18.66 14.06 19.46 14.72 19.46 15.54C19.46 16.35 18.66 17.02 17.69 17.02C16.71 17.02 15.92 16.35 15.92 15.54Z" fill="#FFFFFF" fill-opacity="1.000000" fill-rule="evenodd"/>
		<path id="Vector" d="M6.19 15.54C6.19 14.72 6.98 14.06 7.96 14.06C8.93 14.06 9.73 14.72 9.73 15.54C9.73 16.35 8.93 17.02 7.96 17.02C6.98 17.02 6.19 16.35 6.19 15.54Z" fill="#FFFFFF" fill-opacity="1.000000" fill-rule="evenodd"/>
		<path id="Vector" d="M0 0.74C0 0.33 0.39 0 0.88 0L4.42 0C4.84 0 5.2 0.24 5.29 0.59L6.03 3.7L20.34 3.7C20.6 3.7 20.85 3.79 21.02 3.96C21.19 4.13 21.26 4.36 21.21 4.57L19.79 10.79C19.67 11.3 19.34 11.76 18.85 12.08C18.37 12.41 17.77 12.58 17.15 12.58L8.57 12.58C7.95 12.58 7.34 12.41 6.86 12.08C6.37 11.76 6.04 11.3 5.92 10.79L4.44 4.61C4.44 4.59 4.43 4.57 4.43 4.55L3.69 1.48L0.88 1.48C0.39 1.48 0 1.14 0 0.74L0 0.74ZM6.38 5.17L7.66 10.5C7.7 10.67 7.81 10.82 7.97 10.93C8.13 11.04 8.33 11.1 8.54 11.1L8.56 11.1L17.16 11.1L17.17 11.1C17.38 11.1 17.58 11.04 17.75 10.93C17.91 10.82 18.02 10.67 18.06 10.5L19.27 5.17L6.38 5.17Z" fill="#FFFFFF" fill-opacity="1.000000" fill-rule="evenodd"/>
	</g>
</svg>
