<svg width="24.131348" height="19.536133" viewBox="0 0 24.1313 19.5361" fill="none" xmlns="http://www.w3.org/2000/svg" xmlns:xlink="http://www.w3.org/1999/xlink">
	<desc>
			Created with Pixso.
	</desc>
	<defs>
		<clipPath id="clip10_4153">
			<rect id="heart 1" width="24.131544" height="19.536549" fill="white" fill-opacity="0"/>
		</clipPath>
	</defs>
	<rect id="heart 1" width="24.131544" height="19.536549" fill="#FFFFFF" fill-opacity="0"/>
	<g clip-path="url(#clip10_4153)">
		<path id="Vector" d="M16.04 3.15C18.88 3.15 21.19 5.05 21.19 7.7C21.19 13.01 14.16 16.04 11.82 17.18C9.48 16.04 2.45 13.01 2.45 7.7C2.45 5.05 4.8 3.15 7.61 3.15C9.35 3.15 10.88 3.91 11.82 4.67C12.76 3.91 14.29 3.15 16.04 3.15ZM12.7 14.98C13.52 14.56 14.27 14.14 14.96 13.69C17.75 11.9 19.31 9.93 19.31 7.7C19.31 5.91 17.87 4.67 16.04 4.67C15.03 4.67 13.94 5.1 13.14 5.74L11.82 6.81L10.5 5.74C9.7 5.1 8.61 4.67 7.61 4.67C5.79 4.67 4.33 5.92 4.33 7.7C4.33 9.93 5.89 11.9 8.68 13.69C9.38 14.14 10.12 14.56 10.95 14.98C11.23 15.13 11.5 15.26 11.82 15.42C12.14 15.26 12.42 15.13 12.7 14.98Z" fill="#FFFFFF" fill-opacity="1.000000" fill-rule="nonzero"/>
	</g>
</svg>
