<svg width="21.362793" height="17.760742" viewBox="0 0 21.3628 17.7607" fill="none" xmlns="http://www.w3.org/2000/svg" xmlns:xlink="http://www.w3.org/1999/xlink">
	<desc>
			Created with Pixso.
	</desc>
	<defs>
		<clipPath id="clip10_4148">
			<rect id="profile 1" width="21.363007" height="17.760498" fill="white" fill-opacity="0"/>
		</clipPath>
	</defs>
	<rect id="profile 1" width="21.363007" height="17.760498" fill="#FFFFFF" fill-opacity="0"/>
	<g clip-path="url(#clip10_4148)">
		<path id="Vector" d="M10.68 8.14C11.56 8.14 12.42 7.92 13.15 7.51C13.88 7.11 14.45 6.53 14.79 5.85C15.13 5.18 15.21 4.43 15.04 3.71C14.87 3 14.45 2.34 13.82 1.82C13.2 1.3 12.41 0.95 11.54 0.81C10.68 0.66 9.79 0.74 8.97 1.02C8.16 1.3 7.47 1.77 6.98 2.38C6.49 2.99 6.23 3.7 6.23 4.44C6.23 5.42 6.7 6.36 7.53 7.05C8.37 7.74 9.5 8.13 10.68 8.14ZM10.68 2.22C11.2 2.22 11.72 2.35 12.16 2.59C12.6 2.83 12.94 3.18 13.14 3.59C13.35 3.99 13.4 4.44 13.3 4.87C13.19 5.3 12.94 5.69 12.56 6C12.19 6.32 11.72 6.53 11.2 6.61C10.68 6.7 10.14 6.65 9.65 6.49C9.17 6.32 8.75 6.03 8.46 5.67C8.16 5.3 8.01 4.87 8.01 4.44C8.01 3.85 8.29 3.28 8.79 2.87C9.29 2.45 9.97 2.22 10.68 2.22ZM2.67 16.28L2.67 13.32C2.67 12.33 3.14 11.39 3.97 10.7C4.81 10.01 5.94 9.62 7.12 9.62L14.24 9.62C15.42 9.62 16.55 10.01 17.38 10.7C18.22 11.39 18.69 12.33 18.69 13.32L18.69 16.28C18.69 16.47 18.59 16.66 18.43 16.8C18.26 16.94 18.03 17.02 17.8 17.02C17.56 17.02 17.33 16.94 17.17 16.8C17 16.66 16.91 16.47 16.91 16.28L16.91 13.32C16.91 12.73 16.63 12.16 16.13 11.75C15.62 11.33 14.95 11.1 14.24 11.1L7.12 11.1C6.41 11.1 5.73 11.33 5.23 11.75C4.73 12.16 4.45 12.73 4.45 13.32L4.45 16.28C4.45 16.47 4.35 16.66 4.18 16.8C4.02 16.94 3.79 17.02 3.56 17.02C3.32 17.02 3.09 16.94 2.93 16.8C2.76 16.66 2.67 16.47 2.67 16.28Z" fill="#FFFFFF" fill-opacity="1.000000" fill-rule="nonzero"/>
	</g>
</svg>
